<svg width="58" height="12" viewBox="0 0 58 12" fill="none" xmlns="http://www.w3.org/2000/svg">
<path d="M38.5977 2.09668C38.9213 2.09672 39.205 2.15404 39.4492 2.26758C39.6935 2.37837 39.8987 2.52734 40.0635 2.71484C40.2282 2.89945 40.3533 3.1027 40.4385 3.32422H40.4893V2.18164H42.8418V8.71094C42.8417 9.26472 42.698 9.73483 42.4111 10.1211C42.1271 10.5102 41.7268 10.8072 41.21 11.0117C40.6929 11.2163 40.0888 11.3184 39.3984 11.3184C38.7422 11.3184 38.1797 11.2246 37.7109 11.0371C37.2451 10.8525 36.8825 10.5972 36.624 10.2705C36.3683 9.94664 36.2256 9.57378 36.1943 9.15332H38.4609C38.4837 9.29253 38.5409 9.40501 38.6318 9.49023C38.7227 9.57531 38.8386 9.63692 38.9805 9.67383C39.1254 9.7136 39.2878 9.7334 39.4668 9.7334C39.7706 9.73337 40.0219 9.65934 40.2207 9.51172C40.4223 9.36405 40.5234 9.09706 40.5234 8.71094V7.60254H40.4551C40.3699 7.82397 40.2394 8.01276 40.0635 8.16895C39.8874 8.3223 39.6758 8.44106 39.4287 8.52344C39.1816 8.60298 38.9097 8.64258 38.6143 8.64258C38.1484 8.64256 37.7192 8.53426 37.3271 8.31836C36.9381 8.10244 36.6254 7.75967 36.3896 7.29102C36.1569 6.82238 36.0401 6.21039 36.04 5.45508C36.04 4.66531 36.1629 4.02264 36.4072 3.52832C36.6543 3.03432 36.9724 2.67244 37.3613 2.44238C37.7534 2.21227 38.1658 2.09668 38.5977 2.09668ZM53.876 6.71582H53.9443L55.0186 2.18164H57.4902L55.1035 9.27344C54.9843 9.6339 54.811 9.95742 54.584 10.2441C54.3596 10.5339 54.0637 10.7631 53.6973 10.9307C53.3308 11.0982 52.8734 11.1816 52.3252 11.1816C52.0553 11.1816 51.798 11.1608 51.5537 11.1182C51.3095 11.0784 51.0947 11.0231 50.9102 10.9521L51.4219 9.28125C51.615 9.34943 51.7911 9.39417 51.9502 9.41406C52.1119 9.43392 52.2497 9.42236 52.3633 9.37988C52.4798 9.33727 52.5641 9.25603 52.6152 9.13672L52.666 9.01758L50.3652 2.18164H52.8193L53.876 6.71582ZM21.9561 2.09668C22.4245 2.09671 22.8448 2.15199 23.2168 2.2627C23.5888 2.37061 23.9057 2.52284 24.167 2.71875C24.4282 2.91183 24.6273 3.1392 24.7637 3.40039C24.9028 3.65879 24.9726 3.94033 24.9727 4.24414V8.72754H22.7734V7.80664H22.7227C22.592 8.05096 22.4326 8.24885 22.2451 8.39941C22.0605 8.54992 21.8489 8.65938 21.6104 8.72754C21.3747 8.79567 21.1149 8.83004 20.8311 8.83008C20.4134 8.83008 20.0437 8.76136 19.7227 8.625C19.4045 8.4858 19.1545 8.27536 18.9727 7.99414C18.791 7.71298 18.7002 7.35532 18.7002 6.9209C18.7002 6.56315 18.7608 6.25764 18.8828 6.00488C19.005 5.7492 19.1758 5.53986 19.3945 5.37793C19.6132 5.21607 19.8676 5.09303 20.1572 5.00781C20.4498 4.92259 20.7654 4.86639 21.1035 4.84082C21.4698 4.81242 21.7638 4.77901 21.9854 4.73926C22.2098 4.69664 22.3722 4.63832 22.4717 4.56445C22.571 4.48778 22.6201 4.38662 22.6201 4.26172V4.24414C22.62 4.07403 22.5552 3.94336 22.4248 3.85254C22.2942 3.76168 22.1263 3.71587 21.9219 3.71582C21.6976 3.71582 21.5141 3.76591 21.3721 3.86523C21.2329 3.96179 21.1486 4.11091 21.1201 4.3125H18.9561C18.9845 3.91489 19.1106 3.54803 19.335 3.21289C19.5622 2.87498 19.8936 2.60496 20.3281 2.40332C20.7627 2.19891 21.3057 2.09668 21.9561 2.09668ZM46.9873 2.09668C47.4558 2.09671 47.8761 2.15199 48.248 2.2627C48.6201 2.37061 48.9369 2.52284 49.1982 2.71875C49.4595 2.91183 49.6586 3.1392 49.7949 3.40039C49.9341 3.65879 50.0038 3.94033 50.0039 4.24414V8.72754H47.8047V7.80664H47.7539C47.6232 8.05096 47.4639 8.24885 47.2764 8.39941C47.0917 8.54992 46.8802 8.65938 46.6416 8.72754C46.406 8.79567 46.1462 8.83004 45.8623 8.83008C45.4447 8.83008 45.0749 8.76136 44.7539 8.625C44.4358 8.4858 44.1857 8.27536 44.0039 7.99414C43.8222 7.71298 43.7315 7.35532 43.7314 6.9209C43.7314 6.56315 43.792 6.25764 43.9141 6.00488C44.0362 5.7492 44.207 5.53986 44.4258 5.37793C44.6445 5.21607 44.8988 5.09303 45.1885 5.00781C45.4811 4.92259 45.7967 4.86639 46.1348 4.84082C46.5011 4.81242 46.7951 4.77901 47.0166 4.73926C47.241 4.69664 47.4035 4.63832 47.5029 4.56445C47.6022 4.48778 47.6513 4.38662 47.6514 4.26172V4.24414C47.6513 4.07403 47.5864 3.94336 47.4561 3.85254C47.3254 3.76168 47.1575 3.71587 46.9531 3.71582C46.7288 3.71582 46.5453 3.76591 46.4033 3.86523C46.2642 3.96179 46.1798 4.11091 46.1514 4.3125H43.9873C44.0158 3.91489 44.1418 3.54803 44.3662 3.21289C44.5935 2.87498 44.9249 2.60496 45.3594 2.40332C45.794 2.19891 46.3369 2.09668 46.9873 2.09668ZM13.5664 5.86426C13.5693 6.18795 13.6516 6.44236 13.8135 6.62695C13.9782 6.81143 14.2086 6.90332 14.5039 6.90332C14.6998 6.90327 14.8688 6.86261 15.0107 6.78027C15.1556 6.69505 15.2661 6.57528 15.3428 6.42188C15.4222 6.26573 15.4608 6.07997 15.458 5.86426V2.18164H17.8105V8.72754H15.5771V7.4834H15.5088C15.3668 7.90074 15.1185 8.22717 14.7637 8.46289C14.4086 8.69582 13.9866 8.81247 13.498 8.8125C13.0407 8.8125 12.6396 8.7073 12.2959 8.49707C11.9552 8.28686 11.6893 7.99712 11.499 7.62793C11.3116 7.25872 11.2167 6.83549 11.2139 6.3584V2.18164H13.5664V5.86426ZM4.97754 4.94336H5.0791L7.1084 0H10.0566V8.72754H7.73828V3.68164H7.6709L5.72754 8.65918H4.3291L2.38672 3.64844H2.31836V8.72754H0V0H2.94922L4.97754 4.94336ZM32.7998 2.09668C33.2628 2.09669 33.665 2.20299 34.0059 2.41602C34.3496 2.62624 34.6152 2.91681 34.8027 3.28613C34.993 3.65537 35.0868 4.07748 35.084 4.55176V8.72754H32.7314V5.0459C32.7343 4.72212 32.6519 4.46785 32.4844 4.2832C32.3196 4.09854 32.0894 4.00586 31.7939 4.00586C31.6009 4.00587 31.4319 4.04863 31.2871 4.13379C31.1451 4.21618 31.0357 4.33594 30.959 4.49219C30.8824 4.64554 30.8427 4.83012 30.8398 5.0459V8.72754H28.4873V2.18164H30.7197V3.42676H30.7881C30.9301 3.01199 31.1801 2.68599 31.5381 2.4502C31.8989 2.2144 32.3197 2.09668 32.7998 2.09668ZM22.4375 5.93652C22.3694 5.95922 22.2952 5.98014 22.2158 6C22.1392 6.01986 22.0567 6.03864 21.9688 6.05566C21.8836 6.07269 21.7938 6.08835 21.7002 6.10254C21.5186 6.13092 21.3694 6.17792 21.2529 6.24316C21.1393 6.30564 21.0539 6.38384 20.9971 6.47754C20.9431 6.5684 20.916 6.67061 20.916 6.78418C20.916 6.96598 20.9796 7.10556 21.1074 7.20215C21.2353 7.29874 21.3988 7.34668 21.5977 7.34668C21.7766 7.34668 21.9443 7.31018 22.1006 7.23633C22.2597 7.16246 22.3888 7.05522 22.4883 6.91602C22.5876 6.77687 22.6377 6.6079 22.6377 6.40918V5.86426C22.5753 5.88979 22.5084 5.91382 22.4375 5.93652ZM47.4688 5.93652C47.4007 5.95922 47.3265 5.98014 47.2471 6C47.1705 6.01986 47.0879 6.03864 47 6.05566C46.9149 6.07269 46.8251 6.08835 46.7314 6.10254C46.5498 6.13092 46.4006 6.17792 46.2842 6.24316C46.1706 6.30564 46.0851 6.38384 46.0283 6.47754C45.9744 6.5684 45.9473 6.67061 45.9473 6.78418C45.9473 6.96598 46.0108 7.10556 46.1387 7.20215C46.2665 7.29874 46.43 7.34668 46.6289 7.34668C46.8079 7.34668 46.9756 7.31018 47.1318 7.23633C47.2909 7.16246 47.4201 7.05522 47.5195 6.91602C47.6188 6.77687 47.6689 6.6079 47.6689 6.40918V5.86426C47.6065 5.88979 47.5397 5.91382 47.4688 5.93652ZM39.4834 3.90332C39.2677 3.90337 39.083 3.96597 38.9297 4.09082C38.7791 4.21298 38.6625 4.39107 38.5801 4.62402C38.5006 4.85409 38.4609 5.13131 38.4609 5.45508C38.461 5.77869 38.5006 6.0541 38.5801 6.28125C38.6624 6.50562 38.7792 6.67756 38.9297 6.79688C39.083 6.9133 39.2676 6.97163 39.4834 6.97168C39.6993 6.97168 39.8847 6.91229 40.0381 6.79297C40.1941 6.6709 40.3132 6.49755 40.3955 6.27344C40.4807 6.04623 40.5234 5.77315 40.5234 5.45508C40.5234 5.13127 40.4807 4.85411 40.3955 4.62402C40.3131 4.39112 40.1943 4.21298 40.0381 4.09082C39.8847 3.96582 39.6993 3.90332 39.4834 3.90332Z" fill="#3C8DEB"/>
</svg>
