<svg width="24" height="21" viewBox="0 0 24 21" fill="none" xmlns="http://www.w3.org/2000/svg">
<path d="M2.66667 20.1861C1.93333 20.1861 1.30578 19.9667 0.784 19.5278C0.262222 19.089 0.000888889 18.5608 0 17.9432V2.2429C0 1.6261 0.261333 1.09827 0.784 0.659414C1.30667 0.220552 1.93422 0.000747634 2.66667 0H17.3333L24 5.60726V17.9432C24 18.56 23.7391 19.0882 23.2173 19.5278C22.6956 19.9674 22.0676 20.1869 21.3333 20.1861H2.66667ZM5.33333 15.7003H18.6667V13.4574H5.33333V15.7003ZM5.33333 11.2145H18.6667V8.97161H5.33333V11.2145ZM16 6.72871H21.3333L16 2.2429V6.72871ZM5.33333 6.72871H12V4.48581H5.33333V6.72871Z" fill="black"/>
</svg>
