<svg width="20" height="18" viewBox="0 0 20 18" fill="none" xmlns="http://www.w3.org/2000/svg">
<path d="M9.5 17.7633C8.45 17.7633 7.56267 17.4565 6.838 16.843C6.11333 16.2294 5.75067 15.4789 5.75 14.5913C5.75 13.8582 6.00833 13.2134 6.525 12.6568C7.04167 12.1002 7.7 11.7226 8.5 11.5241V9.72752H4.5C3.95 9.72752 3.47933 9.56201 3.088 9.23099C2.69667 8.89997 2.50067 8.50157 2.5 8.03578V6.34403H1C0.716667 6.34403 0.479333 6.26283 0.288 6.10042C0.0966668 5.93802 0.000666667 5.73726 0 5.49816V1.26881C0 1.02914 0.0960001 0.828391 0.288 0.666547C0.48 0.504704 0.717333 0.4235 1 0.422936H6C6.28333 0.422936 6.521 0.50414 6.713 0.666547C6.905 0.828955 7.00067 1.02971 7 1.26881V5.49816C7 5.73783 6.904 5.93886 6.712 6.10127C6.52 6.26368 6.28267 6.3446 6 6.34403H4.5V8.03578H14.5V6.2383C13.7 6.04093 13.0417 5.66367 12.525 5.10652C12.0083 4.54938 11.75 3.90454 11.75 3.17202C11.75 2.28385 12.1127 1.53328 12.838 0.920309C13.5633 0.307334 14.4507 0.00056469 15.5 7.76028e-07C16.5493 -0.000563138 17.437 0.306206 18.163 0.920309C18.889 1.53441 19.2513 2.28498 19.25 3.17202C19.25 3.90511 18.9917 4.55022 18.475 5.10737C17.9583 5.66452 17.3 6.04149 16.5 6.2383V8.03578C16.5 8.50101 16.3043 8.89941 15.913 9.23099C15.5217 9.56257 15.0507 9.72808 14.5 9.72752H10.5V11.525C11.3 11.7224 11.9583 12.0996 12.475 12.6568C12.9917 13.2139 13.25 13.8588 13.25 14.5913C13.25 15.4794 12.8873 16.2303 12.162 16.8438C11.4367 17.4574 10.5493 17.7639 9.5 17.7633Z" fill="black"/>
</svg>
