<svg width="14" height="20" viewBox="0 0 14 20" fill="none" xmlns="http://www.w3.org/2000/svg">
<path d="M1.90735e-06 1.0006V19.0011C0.000535965 19.1834 0.0475311 19.362 0.13593 19.5178C0.224328 19.6736 0.35078 19.8007 0.501678 19.8853C0.652575 19.97 0.822204 20.009 0.992302 19.9982C1.1624 19.9875 1.32653 19.9273 1.46702 19.8241L13.622 10.8239C14.126 10.4509 14.126 9.55285 13.622 9.17883L1.46702 0.178579C1.32682 0.0744007 1.16261 0.0133083 0.992229 0.00193898C0.821847 -0.0094303 0.651811 0.0293585 0.500594 0.114091C0.349377 0.198823 0.222761 0.326259 0.134506 0.482552C0.0462513 0.638844 -0.000267029 0.818017 1.90735e-06 1.0006ZM11.4472 10.0009L1.87 17.0931V2.90866L11.4472 10.0009Z" fill="black"/>
</svg>
