<svg width="29" height="23" viewBox="0 0 29 23" fill="none" xmlns="http://www.w3.org/2000/svg">
<path d="M3.17188 0H25.8281C27.579 0 29 1.47 29 3.28125V19.2188C29 20.089 28.6658 20.9236 28.071 21.5389C27.4761 22.1543 26.6694 22.5 25.8281 22.5H3.17188C2.33064 22.5 1.52386 22.1543 0.929021 21.5389C0.334179 20.9236 0 20.089 0 19.2188L0 3.28125C0 1.47 1.421 0 3.17188 0ZM2.71875 19.2206C2.71875 19.4794 2.92175 19.6894 3.17188 19.6894H25.8281C25.9483 19.6894 26.0636 19.64 26.1485 19.5521C26.2335 19.4642 26.2812 19.3449 26.2812 19.2206V7.14187L15.1887 13.8694C14.98 13.9963 14.7422 14.0632 14.5 14.0632C14.2578 14.0632 14.02 13.9963 13.8112 13.8694L2.71875 7.14187V19.2206ZM26.2812 3.88125V3.28125C26.2812 3.15693 26.2335 3.0377 26.1485 2.94979C26.0636 2.86189 25.9483 2.8125 25.8281 2.8125H3.17188C3.0517 2.8125 2.93644 2.86189 2.85147 2.94979C2.76649 3.0377 2.71875 3.15693 2.71875 3.28125V3.88125L14.5 11.025L26.2812 3.88125Z" fill="#481307"/>
</svg>
