<svg width="24" height="24" viewBox="0 0 24 24" fill="none" xmlns="http://www.w3.org/2000/svg">
<path d="M2.66667 24C1.93333 24 1.30578 23.7391 0.784 23.2173C0.262222 22.6956 0.000888889 22.0676 0 21.3333V2.66667C0 1.93333 0.261333 1.30578 0.784 0.784C1.30667 0.262222 1.93422 0.000888889 2.66667 0H17.3333L24 6.66667V21.3333C24 22.0667 23.7391 22.6947 23.2173 23.2173C22.6956 23.74 22.0676 24.0009 21.3333 24H2.66667ZM5.33333 18.6667H18.6667V16H5.33333V18.6667ZM5.33333 13.3333H18.6667V10.6667H5.33333V13.3333ZM16 8H21.3333L16 2.66667V8ZM5.33333 8H12V5.33333H5.33333V8Z" fill="black"/>
</svg>
