<svg width="27" height="27" viewBox="0 0 27 27" fill="none" xmlns="http://www.w3.org/2000/svg">
<path fill-rule="evenodd" clip-rule="evenodd" d="M0 12C0 6.3435 -1.78814e-07 3.5145 1.758 1.758C3.516 0.00149989 6.3435 0 12 0H15C20.6565 0 23.4855 -1.78814e-07 25.242 1.758C26.9985 3.516 27 6.3435 27 12V15C27 20.6565 27 23.4855 25.242 25.242C23.484 26.9985 20.6565 27 15 27H12C6.3435 27 3.5145 27 1.758 25.242C0.00149989 23.484 0 20.6565 0 15V12ZM22.5 6.75C22.5 7.34674 22.2629 7.91903 21.841 8.34099C21.419 8.76295 20.8467 9 20.25 9C19.6533 9 19.081 8.76295 18.659 8.34099C18.2371 7.91903 18 7.34674 18 6.75C18 6.15326 18.2371 5.58097 18.659 5.15901C19.081 4.73705 19.6533 4.5 20.25 4.5C20.8467 4.5 21.419 4.73705 21.841 5.15901C22.2629 5.58097 22.5 6.15326 22.5 6.75ZM16.5 15C16.5 15.7956 16.1839 16.5587 15.6213 17.1213C15.0587 17.6839 14.2956 18 13.5 18C12.7044 18 11.9413 17.6839 11.3787 17.1213C10.8161 16.5587 10.5 15.7956 10.5 15C10.5 14.2044 10.8161 13.4413 11.3787 12.8787C11.9413 12.3161 12.7044 12 13.5 12C14.2956 12 15.0587 12.3161 15.6213 12.8787C16.1839 13.4413 16.5 14.2044 16.5 15ZM19.5 15C19.5 16.5913 18.8679 18.1174 17.7426 19.2426C16.6174 20.3679 15.0913 21 13.5 21C11.9087 21 10.3826 20.3679 9.25736 19.2426C8.13214 18.1174 7.5 16.5913 7.5 15C7.5 13.4087 8.13214 11.8826 9.25736 10.7574C10.3826 9.63214 11.9087 9 13.5 9C15.0913 9 16.6174 9.63214 17.7426 10.7574C18.8679 11.8826 19.5 13.4087 19.5 15Z" fill="#481307"/>
</svg>
