<svg width="29" height="26" viewBox="0 0 29 26" fill="none" xmlns="http://www.w3.org/2000/svg">
<path d="M25.9029 19.3275C24.9415 18.4525 22.6128 17.1756 21.483 16.661C20.0117 15.9916 19.8906 15.9369 18.7342 16.7129C17.9628 17.2308 17.45 17.6935 16.5472 17.5196C15.6445 17.3457 13.6828 16.3651 11.965 14.8186C10.2473 13.272 9.09875 11.4487 8.90561 10.6361C8.71247 9.82341 9.23317 9.36567 9.8011 8.66731C10.6015 7.68294 10.541 7.51887 9.8568 6.18997C9.32338 5.15637 7.86844 3.07278 6.89606 2.20872C5.85586 1.28067 5.85586 1.44473 5.18561 1.6963C4.63992 1.90362 4.11642 2.15569 3.62168 2.44934C2.65293 3.03067 2.11528 3.51356 1.73928 4.23927C1.36329 4.96497 1.19436 6.6663 3.1361 9.85239C5.07784 13.0385 6.44014 14.6676 9.25981 17.2073C12.0795 19.747 14.2477 21.1125 17.4173 22.7182C21.3383 24.7017 22.8423 24.315 23.6482 23.976C24.454 23.6369 24.9911 23.1557 25.6359 22.2807C25.9619 21.8346 26.2416 21.3622 26.4715 20.8697C26.7506 20.2665 26.9322 20.2665 25.9029 19.3275Z" stroke="#481307" stroke-width="3" stroke-miterlimit="10"/>
</svg>
