<svg width="33" height="32" viewBox="0 0 33 32" fill="none" xmlns="http://www.w3.org/2000/svg">
<path d="M16.5 18.2857C14.0688 18.2857 11.7373 17.483 10.0182 16.0541C8.2991 14.6253 7.33333 12.6874 7.33333 10.6667H11C11 11.8791 11.5795 13.0418 12.6109 13.8992C13.6424 14.7565 15.0413 15.2381 16.5 15.2381C17.9587 15.2381 19.3576 14.7565 20.3891 13.8992C21.4205 13.0418 22 11.8791 22 10.6667H25.6667C25.6667 12.6874 24.7009 14.6253 22.9818 16.0541C21.2627 17.483 18.9312 18.2857 16.5 18.2857ZM16.5 3.04762C17.9587 3.04762 19.3576 3.52925 20.3891 4.38656C21.4205 5.24387 22 6.40663 22 7.61905H11C11 6.40663 11.5795 5.24387 12.6109 4.38656C13.6424 3.52925 15.0413 3.04762 16.5 3.04762ZM29.3333 7.61905H25.6667C25.6667 6.6185 25.4296 5.62775 24.9689 4.70336C24.5082 3.77898 23.833 2.93906 22.9818 2.23157C22.1306 1.52407 21.1201 0.962858 20.0079 0.579965C18.8958 0.197073 17.7038 0 16.5 0C14.0688 0 11.7373 0.802719 10.0182 2.23157C8.2991 3.66042 7.33333 5.59835 7.33333 7.61905H3.66667C1.63167 7.61905 0 8.97524 0 10.6667V28.9524C0 29.7607 0.386308 30.5358 1.07394 31.1074C1.76158 31.6789 2.69421 32 3.66667 32H29.3333C30.3058 32 31.2384 31.6789 31.9261 31.1074C32.6137 30.5358 33 29.7607 33 28.9524V10.6667C33 9.85839 32.6137 9.08321 31.9261 8.51167C31.2384 7.94014 30.3058 7.61905 29.3333 7.61905Z" fill="black"/>
</svg>
