<svg width="24" height="21" viewBox="0 0 24 21" fill="none" xmlns="http://www.w3.org/2000/svg">
<path d="M22.6 20.1861C19.8222 20.1861 17.0778 19.677 14.3667 18.6587C11.6556 17.6404 9.18889 16.1964 6.96667 14.3265C4.74444 12.4567 3.028 10.382 1.81733 8.10249C0.606667 5.82295 0.000888889 3.51463 0 1.17752C0 0.841089 0.133333 0.560726 0.4 0.336435C0.666667 0.112145 1 0 1.4 0H6.8C7.11111 0 7.38889 0.0889684 7.63333 0.266905C7.87778 0.444842 8.02222 0.654928 8.06667 0.897161L8.93333 4.82224C8.97778 5.1213 8.96667 5.37362 8.9 5.57922C8.83333 5.78482 8.71111 5.96238 8.53333 6.11191L5.3 8.85947C5.74444 9.55103 6.272 10.219 6.88267 10.8635C7.49333 11.508 8.16578 12.1296 8.9 12.7285C9.58889 13.3079 10.3111 13.8454 11.0667 14.3411C11.8222 14.8368 12.6222 15.2899 13.4667 15.7003L16.6 13.0649C16.8 12.8967 17.0613 12.7707 17.384 12.687C17.7067 12.6032 18.0231 12.5797 18.3333 12.6163L22.9333 13.4013C23.2444 13.4761 23.5 13.6118 23.7 13.8084C23.9 14.0051 24 14.2245 24 14.4667V19.0086C24 19.345 23.8667 19.6254 23.6 19.8497C23.3333 20.074 23 20.1861 22.6 20.1861Z" fill="black"/>
</svg>
