<svg width="9" height="16" viewBox="0 0 9 16" fill="none" xmlns="http://www.w3.org/2000/svg">
<mask id="path-1-inside-1_2047_251" fill="white">
<path d="M5.62668e-05 1.28084L1.23789 5.72205e-06L7.98006 6.98055C8.08874 7.0924 8.17499 7.22541 8.23384 7.37192C8.2927 7.51843 8.323 7.67555 8.323 7.83423C8.323 7.99292 8.2927 8.15004 8.23384 8.29655C8.17499 8.44306 8.08874 8.57607 7.98006 8.68792L1.23789 15.6721L0.00122261 14.3913L6.32922 7.83605L5.62668e-05 1.28084Z"/>
</mask>
<path d="M5.62668e-05 1.28084L1.23789 5.72205e-06L7.98006 6.98055C8.08874 7.0924 8.17499 7.22541 8.23384 7.37192C8.2927 7.51843 8.323 7.67555 8.323 7.83423C8.323 7.99292 8.2927 8.15004 8.23384 8.29655C8.17499 8.44306 8.08874 8.57607 7.98006 8.68792L1.23789 15.6721L0.00122261 14.3913L6.32922 7.83605L5.62668e-05 1.28084Z" fill="#3C8DEB"/>
<path d="M5.62668e-05 1.28084L-2.15716 -0.803963L-4.17103 1.27985L-2.15815 3.36462L5.62668e-05 1.28084ZM1.23789 5.72205e-06L3.39573 -2.08415L1.23853 -4.31762L-0.919332 -2.08479L1.23789 5.72205e-06ZM7.98006 6.98055L5.8222 9.06471L5.82844 9.07114L7.98006 6.98055ZM7.98006 8.68792L5.82843 6.59732L5.82167 6.60432L7.98006 8.68792ZM1.23789 15.6721L-0.920315 17.7559L1.23808 19.9913L3.39627 17.7557L1.23789 15.6721ZM0.00122261 14.3913L-2.15717 12.3077L-4.16873 14.3914L-2.15698 16.475L0.00122261 14.3913ZM6.32922 7.83605L8.48762 9.91963L10.4992 7.83585L8.48743 5.75226L6.32922 7.83605ZM5.62668e-05 1.28084L2.15728 3.36564L3.39511 2.08481L1.23789 5.72205e-06L-0.919332 -2.08479L-2.15716 -0.803963L5.62668e-05 1.28084ZM1.23789 5.72205e-06L-0.919954 2.08416L5.82221 9.0647L7.98006 6.98055L10.1379 4.89639L3.39573 -2.08415L1.23789 5.72205e-06ZM7.98006 6.98055L5.82844 9.07114C5.66173 8.89956 5.53483 8.70123 5.45006 8.49021L8.23384 7.37192L11.0176 6.25362C10.8151 5.74959 10.5157 5.28524 10.1317 4.88996L7.98006 6.98055ZM8.23384 7.37192L5.45006 8.49021C5.36536 8.27935 5.323 8.05672 5.323 7.83423H8.323H11.323C11.323 7.29438 11.22 6.75751 11.0176 6.25362L8.23384 7.37192ZM8.323 7.83423H5.323C5.323 7.61175 5.36536 7.38911 5.45006 7.17825L8.23384 8.29655L11.0176 9.41484C11.22 8.91096 11.323 8.37409 11.323 7.83423H8.323ZM8.23384 8.29655L5.45006 7.17825C5.53483 6.96724 5.66173 6.76891 5.82844 6.59733L7.98006 8.68792L10.1317 10.7785C10.5157 10.3832 10.8151 9.91888 11.0176 9.41484L8.23384 8.29655ZM7.98006 8.68792L5.82167 6.60432L-0.920495 13.5885L1.23789 15.6721L3.39627 17.7557L10.1384 10.7715L7.98006 8.68792ZM1.23789 15.6721L3.39609 13.5883L2.15943 12.3075L0.00122261 14.3913L-2.15698 16.475L-0.920315 17.7559L1.23789 15.6721ZM0.00122261 14.3913L2.15962 16.4748L8.48762 9.91963L6.32922 7.83605L4.17083 5.75246L-2.15717 12.3077L0.00122261 14.3913ZM6.32922 7.83605L8.48743 5.75226L2.15826 -0.802946L5.62668e-05 1.28084L-2.15815 3.36462L4.17102 9.91983L6.32922 7.83605Z" fill="#3C8DEB" mask="url(#path-1-inside-1_2047_251)"/>
</svg>
