<svg width="30" height="26" viewBox="0 0 30 26" fill="none" xmlns="http://www.w3.org/2000/svg">
<path d="M15 0C16.9891 0 18.8968 0.664608 20.3033 1.84762C21.7098 3.03063 22.5 4.63514 22.5 6.30817C22.5 7.98119 21.7098 9.5857 20.3033 10.7687C18.8968 11.9517 16.9891 12.6163 15 12.6163C13.0109 12.6163 11.1032 11.9517 9.6967 10.7687C8.29018 9.5857 7.5 7.98119 7.5 6.30817C7.5 4.63514 8.29018 3.03063 9.6967 1.84762C11.1032 0.664608 13.0109 0 15 0ZM15 15.7704C23.2875 15.7704 30 18.5933 30 22.0786V25.2327H0V22.0786C0 18.5933 6.7125 15.7704 15 15.7704Z" fill="black"/>
</svg>
