<svg width="15" height="17" viewBox="0 0 15 17" fill="none" xmlns="http://www.w3.org/2000/svg">
<path d="M2.4 0C1.76348 0 1.15303 0.212675 0.702944 0.591238C0.252856 0.969801 0 1.48324 0 2.01861V14.1303C0 14.6657 0.252856 15.1791 0.702944 15.5577C1.15303 15.9362 1.76348 16.1489 2.4 16.1489H12C12.6365 16.1489 13.247 15.9362 13.6971 15.5577C14.1471 15.1791 14.4 14.6657 14.4 14.1303V2.01861C14.4 1.48324 14.1471 0.969801 13.6971 0.591238C13.247 0.212675 12.6365 0 12 0H2.4ZM3.6 2.01861H10.8C11.1183 2.01861 11.4235 2.12495 11.6485 2.31423C11.8736 2.50351 12 2.76023 12 3.02792C12 3.2956 11.8736 3.55232 11.6485 3.74161C11.4235 3.93089 11.1183 4.03723 10.8 4.03723H3.6C3.28174 4.03723 2.97652 3.93089 2.75147 3.74161C2.52643 3.55232 2.4 3.2956 2.4 3.02792C2.4 2.76023 2.52643 2.50351 2.75147 2.31423C2.97652 2.12495 3.28174 2.01861 3.6 2.01861Z" fill="black"/>
</svg>
