<svg width="18" height="15" viewBox="0 0 18 15" fill="none" xmlns="http://www.w3.org/2000/svg">
<path d="M12.5 9.30458H11.71L11.43 9.0762C12.444 8.08151 13.0012 6.81156 13 5.49816C13 4.41073 12.6188 3.34772 11.9046 2.44355C11.1903 1.53938 10.1752 0.834668 8.98744 0.418525C7.79973 0.00238227 6.49279 -0.1065 5.23192 0.105648C3.97104 0.317796 2.81285 0.841445 1.90381 1.61038C0.994767 2.37931 0.375703 3.35899 0.124899 4.42553C-0.125905 5.49206 0.00281635 6.59756 0.494786 7.60222C0.986756 8.60688 1.81988 9.46557 2.8888 10.0697C3.95772 10.6739 5.21442 10.9963 6.5 10.9963C8.11 10.9963 9.59 10.4973 10.73 9.66831L11 9.90515V10.5734L16 14.7943L17.49 13.5339L12.5 9.30458ZM6.5 9.30458C4.01 9.30458 2 7.60438 2 5.49816C2 3.39195 4.01 1.69174 6.5 1.69174C8.99 1.69174 11 3.39195 11 5.49816C11 7.60438 8.99 9.30458 6.5 9.30458Z" fill="#807A7A"/>
</svg>
