<svg width="28" height="26" viewBox="0 0 28 26" fill="none" xmlns="http://www.w3.org/2000/svg">
<path d="M1.5 23.1125V4C1.5 3.33696 1.78973 2.70107 2.30546 2.23223C2.82118 1.76339 3.52065 1.5 4.25 1.5H23.5C24.2293 1.5 24.9288 1.76339 25.4445 2.23223C25.9603 2.70107 26.25 3.33696 26.25 4V16.5C26.25 17.163 25.9603 17.7989 25.4445 18.2678C24.9288 18.7366 24.2293 19 23.5 19H8.32137C7.9092 19 7.5023 19.0843 7.13078 19.2466C6.75926 19.4089 6.43261 19.645 6.175 19.9375L2.96987 23.58C2.86321 23.7015 2.71764 23.7899 2.5533 23.8329C2.38897 23.876 2.21398 23.8715 2.05256 23.8202C1.89114 23.7688 1.75125 23.6731 1.65226 23.5464C1.55327 23.4196 1.50006 23.268 1.5 23.1125Z" stroke="#481307" stroke-width="3"/>
</svg>
