<svg width="27" height="27" viewBox="0 0 27 27" fill="none" xmlns="http://www.w3.org/2000/svg">
<path d="M23.7855 0H3.2145C2.36221 0.000794311 1.54505 0.339719 0.942383 0.942383C0.339719 1.54505 0.000794311 2.36221 0 3.2145V23.7855C0 25.56 1.4415 27 3.2145 27H23.7855C24.6378 26.9992 25.455 26.6603 26.0576 26.0576C26.6603 25.455 26.9992 24.6378 27 23.7855V3.2145C26.9992 2.36221 26.6603 1.54505 26.0576 0.942383C25.455 0.339719 24.6378 0.000794311 23.7855 0ZM21.2175 11.7795C20.2714 11.8714 19.3194 11.6775 18.4845 11.223C17.7803 10.8433 17.1822 10.2937 16.7445 9.624V17.04C16.7445 18.124 16.423 19.1837 15.8208 20.0851C15.2185 20.9864 14.3625 21.6889 13.361 22.1038C12.3595 22.5186 11.2574 22.6272 10.1942 22.4157C9.131 22.2042 8.15438 21.6822 7.38785 20.9157C6.62132 20.1491 6.0993 19.1725 5.88782 18.1093C5.67633 17.0461 5.78487 15.944 6.19972 14.9425C6.61456 13.941 7.31707 13.085 8.21842 12.4827C9.11977 11.8805 10.1795 11.559 11.2635 11.559C11.3775 11.559 11.4885 11.5695 11.601 11.5755V14.277C11.4885 14.2635 11.379 14.2425 11.2635 14.2425C10.5216 14.2425 9.81 14.5372 9.28537 15.0619C8.76074 15.5865 8.466 16.2981 8.466 17.04C8.466 17.7819 8.76074 18.4935 9.28537 19.0181C9.81 19.5428 10.5216 19.8375 11.2635 19.8375C12.8085 19.8375 14.1735 18.621 14.1735 17.076L14.2005 4.479H16.785C16.9033 5.60164 17.4123 6.64704 18.223 7.43255C19.0337 8.21806 20.0947 8.69374 21.2205 8.7765V11.7795" fill="#481307"/>
</svg>
