<svg width="18" height="18" viewBox="0 0 18 18" fill="none" xmlns="http://www.w3.org/2000/svg">
<path d="M12.5 11.0625H11.71L11.43 10.791C12.444 9.60839 13.0012 8.0985 13 6.53696C13 5.24407 12.6188 3.98022 11.9046 2.90522C11.1903 1.83022 10.1752 0.992366 8.98744 0.497599C7.79973 0.00283236 6.49279 -0.126621 5.23192 0.125609C3.97104 0.377839 2.81285 1.00042 1.90381 1.91463C0.994767 2.82884 0.375703 3.99362 0.124899 5.26166C-0.125905 6.52971 0.00281635 7.84407 0.494786 9.03855C0.986756 10.233 1.81988 11.254 2.8888 11.9722C3.95772 12.6905 5.21442 13.0739 6.5 13.0739C8.11 13.0739 9.59 12.4806 10.73 11.495L11 11.7766V12.5711L16 17.5895L17.49 16.091L12.5 11.0625ZM6.5 11.0625C4.01 11.0625 2 9.04112 2 6.53696C2 4.0328 4.01 2.01137 6.5 2.01137C8.99 2.01137 11 4.0328 11 6.53696C11 9.04112 8.99 11.0625 6.5 11.0625Z" fill="#807A7A"/>
</svg>
