<svg width="33" height="27" viewBox="0 0 33 27" fill="none" xmlns="http://www.w3.org/2000/svg">
<path d="M16.5 15.3799C14.0688 15.3799 11.7373 14.7047 10.0182 13.503C8.2991 12.3012 7.33333 10.6712 7.33333 8.97161H11C11 9.99136 11.5795 10.9693 12.6109 11.6904C13.6424 12.4115 15.0413 12.8166 16.5 12.8166C17.9587 12.8166 19.3576 12.4115 20.3891 11.6904C21.4205 10.9693 22 9.99136 22 8.97161H25.6667C25.6667 10.6712 24.7009 12.3012 22.9818 13.503C21.2627 14.7047 18.9312 15.3799 16.5 15.3799ZM16.5 2.56332C17.9587 2.56332 19.3576 2.96841 20.3891 3.68949C21.4205 4.41056 22 5.38854 22 6.40829H11C11 5.38854 11.5795 4.41056 12.6109 3.68949C13.6424 2.96841 15.0413 2.56332 16.5 2.56332ZM29.3333 6.40829H25.6667C25.6667 5.56674 25.4296 4.73344 24.9689 3.95595C24.5082 3.17846 23.833 2.47201 22.9818 1.87695C22.1306 1.28188 21.1201 0.809849 20.0079 0.487802C18.8958 0.165755 17.7038 0 16.5 0C14.0688 0 11.7373 0.675158 10.0182 1.87695C8.2991 3.07873 7.33333 4.70871 7.33333 6.40829H3.66667C1.63167 6.40829 0 7.54897 0 8.97161V24.3515C0 25.0314 0.386308 25.6833 1.07394 26.1641C1.76158 26.6448 2.69421 26.9148 3.66667 26.9148H29.3333C30.3058 26.9148 31.2384 26.6448 31.9261 26.1641C32.6137 25.6833 33 25.0314 33 24.3515V8.97161C33 8.29178 32.6137 7.63979 31.9261 7.15907C31.2384 6.67836 30.3058 6.40829 29.3333 6.40829Z" fill="black"/>
</svg>
