<svg width="15" height="20" viewBox="0 0 15 20" fill="none" xmlns="http://www.w3.org/2000/svg">
<path d="M2.4 0C1.76348 0 1.15303 0.252856 0.702944 0.702944C0.252856 1.15303 0 1.76348 0 2.4V16.8C0 17.4365 0.252856 18.047 0.702944 18.4971C1.15303 18.9471 1.76348 19.2 2.4 19.2H12C12.6365 19.2 13.247 18.9471 13.6971 18.4971C14.1471 18.047 14.4 17.4365 14.4 16.8V2.4C14.4 1.76348 14.1471 1.15303 13.6971 0.702944C13.247 0.252856 12.6365 0 12 0H2.4ZM3.6 2.4H10.8C11.1183 2.4 11.4235 2.52643 11.6485 2.75147C11.8736 2.97652 12 3.28174 12 3.6C12 3.91826 11.8736 4.22348 11.6485 4.44853C11.4235 4.67357 11.1183 4.8 10.8 4.8H3.6C3.28174 4.8 2.97652 4.67357 2.75147 4.44853C2.52643 4.22348 2.4 3.91826 2.4 3.6C2.4 3.28174 2.52643 2.97652 2.75147 2.75147C2.97652 2.52643 3.28174 2.4 3.6 2.4Z" fill="black"/>
</svg>
