<svg width="29" height="26" viewBox="0 0 29 26" fill="none" xmlns="http://www.w3.org/2000/svg">
<path d="M25.9028 19.3275C24.9413 18.4525 22.6127 17.1756 21.4829 16.661C20.0116 15.9916 19.8905 15.9369 18.7341 16.7129C17.9627 17.2308 17.4499 17.6935 16.5471 17.5196C15.6444 17.3457 13.6826 16.3651 11.9649 14.8185C10.2472 13.272 9.09863 11.4487 8.90549 10.636C8.71234 9.82339 9.23305 9.36566 9.80098 8.6673C10.6014 7.68292 10.5409 7.51886 9.85668 6.18995C9.32326 5.15636 7.86832 3.07277 6.89594 2.2087C5.85574 1.28066 5.85574 1.44472 5.18549 1.69628C4.6398 1.90361 4.1163 2.15568 3.62156 2.44933C2.65281 3.03066 2.11516 3.51355 1.73916 4.23925C1.36316 4.96495 1.19424 6.66628 3.13598 9.85237C5.07771 13.0385 6.44002 14.6676 9.25969 17.2073C12.0794 19.747 14.2475 21.1125 17.4172 22.7182C21.3382 24.7017 22.8422 24.315 23.648 23.976C24.4539 23.6369 24.991 23.1557 25.6358 22.2807C25.9617 21.8345 26.2414 21.3622 26.4713 20.8697C26.7505 20.2665 26.9321 20.2665 25.9028 19.3275Z" stroke="#481307" stroke-width="3" stroke-miterlimit="10"/>
</svg>
