<svg width="20" height="28" viewBox="0 0 20 28" fill="none" xmlns="http://www.w3.org/2000/svg">
<path d="M9.625 13.0625C8.71332 13.0625 7.83898 12.7003 7.19432 12.0557C6.54966 11.411 6.1875 10.5367 6.1875 9.625C6.1875 8.71332 6.54966 7.83898 7.19432 7.19432C7.83898 6.54966 8.71332 6.1875 9.625 6.1875C10.5367 6.1875 11.411 6.54966 12.0557 7.19432C12.7003 7.83898 13.0625 8.71332 13.0625 9.625C13.0625 10.0764 12.9736 10.5234 12.8008 10.9405C12.6281 11.3575 12.3749 11.7365 12.0557 12.0557C11.7365 12.3749 11.3575 12.6281 10.9405 12.8008C10.5234 12.9736 10.0764 13.0625 9.625 13.0625ZM9.625 0C7.07229 0 4.62413 1.01406 2.8191 2.8191C1.01406 4.62413 0 7.07229 0 9.625C0 16.8438 9.625 27.5 9.625 27.5C9.625 27.5 19.25 16.8438 19.25 9.625C19.25 7.07229 18.2359 4.62413 16.4309 2.8191C14.6259 1.01406 12.1777 0 9.625 0Z" fill="black"/>
</svg>
