<svg width="20" height="22" viewBox="0 0 20 22" fill="none" xmlns="http://www.w3.org/2000/svg">
<path d="M9.5 21.1194C8.45 21.1194 7.56267 20.7547 6.838 20.0252C6.11333 19.2958 5.75067 18.4034 5.75 17.3481C5.75 16.4765 6.00833 15.7098 6.525 15.0481C7.04167 14.3863 7.7 13.9375 8.5 13.7015V11.5654H4.5C3.95 11.5654 3.47933 11.3686 3.088 10.9751C2.69667 10.5815 2.50067 10.1078 2.5 9.55402V7.54265H1C0.716667 7.54265 0.479333 7.4461 0.288 7.25301C0.0966668 7.05992 0.000666667 6.82123 0 6.53696V1.50853C0 1.22359 0.0960001 0.984903 0.288 0.792482C0.48 0.60006 0.717333 0.503514 1 0.502844H6C6.28333 0.502844 6.521 0.59939 6.713 0.792482C6.905 0.985573 7.00067 1.22426 7 1.50853V6.53696C7 6.8219 6.904 7.06092 6.712 7.25401C6.52 7.44711 6.28267 7.54332 6 7.54265H4.5V9.55402H14.5V7.41694C13.7 7.18228 13.0417 6.73374 12.525 6.07133C12.0083 5.40892 11.75 4.64225 11.75 3.77132C11.75 2.71535 12.1127 1.82297 12.838 1.09419C13.5633 0.3654 14.4507 0.00067138 15.5 9.22648e-07C16.5493 -0.000669535 17.437 0.364059 18.163 1.09419C18.889 1.82432 19.2513 2.71669 19.25 3.77132C19.25 4.64292 18.9917 5.40992 18.475 6.07233C17.9583 6.73475 17.3 7.18295 16.5 7.41694V9.55402C16.5 10.1071 16.3043 10.5808 15.913 10.9751C15.5217 11.3693 15.0507 11.5661 14.5 11.5654H10.5V13.7025C11.3 13.9371 11.9583 14.3857 12.475 15.0481C12.9917 15.7105 13.25 16.4772 13.25 17.3481C13.25 18.4041 12.8873 19.2968 12.162 20.0262C11.4367 20.7557 10.5493 21.1201 9.5 21.1194Z" fill="black"/>
</svg>
